<?xml version="1.0" encoding="utf-8"?>
<!-- Generator: Adobe Illustrator 27.5.0, SVG Export Plug-In . SVG Version: 6.00 Build 0)  -->
<svg version="1.1" xmlns="http://www.w3.org/2000/svg" xmlns:xlink="http://www.w3.org/1999/xlink" x="0px" y="0px"
	 viewBox="0 0 500 500" style="enable-background:new 0 0 500 500;" xml:space="preserve">
<g id="BACKGROUND">
	<rect x="-0.001" y="-0.004" style="fill:#81D4FA;" width="500" height="500"/>
</g>
<g id="OBJECTS">
	<g>
		<g>
			<g>
				<path style="fill:#F9AE40;" d="M271.087,132.969c-0.853-0.113-1.765-0.301-2.739-0.576c-4.374-1.235-8.054-3.849-11.16-6.202
					c-15.219-11.526-29.337-26.578-41.96-44.738c-8.576-12.337-10.682-22.168-6.44-30.054c1.002-1.864,2.377-3.594,4.087-5.144
					c4.574-4.145,9.926-5.91,15.904-5.247c12.936,1.424,26.256,14.332,33.733,24.942c10.076,14.298,17.304,31.598,20.901,50.03
					c1.219,6.242,0.059,11.533-3.182,14.517C278.552,132.044,275.674,133.578,271.087,132.969z M228.494,47.017
					c-0.126-0.017-0.252-0.032-0.378-0.046c-4.255-0.472-7.923,0.748-11.214,3.73c-1.201,1.089-2.154,2.28-2.831,3.54v0
					c-3.026,5.625-0.979,13.628,6.083,23.787c12.262,17.641,25.941,32.236,40.656,43.38c2.67,2.022,5.8,4.259,9.169,5.21
					c1.957,0.553,4.62,0.908,6.188-0.535c1.649-1.518,2.156-4.865,1.358-8.954c-3.438-17.608-10.324-34.111-19.918-47.723
					C252.223,61.768,240.094,48.557,228.494,47.017z"/>
			</g>
			<path style="fill:#EB1C24;" d="M364.813,179.008l-72.946-78.572c-7.537-8.122-19.779-9.747-29.184-3.874l-90.917,56.821
				c-5.842,3.653-9.744,9.722-10.651,16.552l-27.648,208.293c-0.822,6.196,0.89,12.143,4.339,16.787
				c3.583,4.854,9.066,8.305,15.519,9.162l163.863,21.751c12.649,1.679,24.271-7.219,25.95-19.868l27.648-208.293
				C371.693,190.937,369.499,184.058,364.813,179.008z M270.298,151.068c-0.515-0.068-1.027-0.167-1.526-0.283l-0.01-0.001
				c-7.52-1.785-12.614-9.008-11.575-16.839c1.108-8.347,8.777-14.219,17.124-13.111c7.821,1.038,13.475,7.841,13.237,15.567
				l-0.001,0.01c-0.017,0.512-0.056,1.032-0.125,1.547C286.313,146.314,278.645,152.176,270.298,151.068z"/>
			<path style="fill:#B70815;" d="M370.787,197.767L343.138,406.06c-1.679,12.652-13.298,21.548-25.95,19.868l-163.863-21.751
				c-6.453-0.857-11.937-4.308-15.519-9.162v0c1.869-1.431,4.231-2.061,6.564-1.751l174.562,23.171
				c7.796,1.035,14.955-4.446,15.99-12.242l27.402-206.44c0.391-2.944,0.342-5.93-0.144-8.86l0,0
				c-0.584-3.52,0.375-7.121,2.632-9.885l0,0C369.499,184.058,371.693,190.937,370.787,197.767z"/>
			<path style="fill:#B70815;" d="M287.843,134.785c-0.072,0.545-0.165,1.088-0.295,1.615c0.239-7.726-5.415-14.529-13.237-15.567
				c-8.347-1.108-16.016,4.764-17.124,13.111c-1.039,7.831,4.054,15.054,11.575,16.839c-0.543-0.012-1.091-0.064-1.636-0.136
				c-10.091-1.34-17.193-10.615-15.852-20.716s10.615-17.193,20.706-15.853C282.081,115.419,289.184,124.684,287.843,134.785z"/>
			<g>
				<path style="fill:#FF616D;" d="M328.45,148.891c0,0-1.137-1.198-3.269-3.444c-2.128-2.25-5.249-5.549-9.221-9.749
					c-3.955-4.215-8.759-9.333-14.268-15.203c-2.755-2.935-5.686-6.059-8.776-9.351c-1.54-1.651-3.12-3.344-4.737-5.078
					c-0.41-0.406-0.822-0.814-1.236-1.225c-0.428-0.378-0.856-0.701-1.283-1.061c-0.471-0.32-0.942-0.652-1.426-0.962
					c-0.51-0.27-0.999-0.584-1.529-0.825c-4.181-2.019-9.388-2.438-14.042-0.636c-1.173,0.41-2.276,1.018-3.351,1.671
					c-1.133,0.737-2.275,1.48-3.426,2.229c-2.308,1.51-4.65,3.042-7.025,4.596c-9.508,6.203-19.535,12.744-29.907,19.511
					c-10.393,6.735-21.131,13.695-32.044,20.767c-2.733,1.76-5.477,3.528-8.228,5.301c-1.376,0.886-2.754,1.774-4.133,2.663
					l-1.035,0.667l-0.471,0.307l-0.508,0.348l-0.506,0.347l-0.428,0.332c-0.286,0.216-0.574,0.438-0.86,0.695
					c-2.304,1.956-4.219,4.383-5.562,7.102c-0.672,1.358-1.205,2.785-1.59,4.251c-0.396,1.465-0.578,2.934-0.796,4.627
					c-1.761,13.092-3.521,26.184-5.254,39.071c-1.768,12.883-3.509,25.561-5.193,37.83c-1.722,12.264-3.386,24.12-4.964,35.362
					c-1.615,11.237-3.142,21.862-4.551,31.669c-1.408,9.807-2.758,18.789-3.958,26.75c-1.195,7.962-2.237,14.902-3.095,20.618
					c-0.88,5.713-1.572,10.202-2.044,13.263c-0.478,3.06-0.732,4.692-0.732,4.692s0.18-1.642,0.517-4.72
					c0.343-3.077,0.846-7.591,1.487-13.336c0.663-5.742,1.468-12.714,2.391-20.712c0.918-7.998,1.958-17.022,3.158-26.857
					c1.198-9.835,2.495-20.49,3.868-31.759c1.409-11.265,2.895-23.144,4.433-35.432c1.575-12.284,3.202-24.977,4.856-37.875
					c1.689-12.893,3.405-25.991,5.12-39.089c0.208-1.58,0.438-3.397,0.911-5.121c0.459-1.725,1.094-3.403,1.891-4.999
					c1.592-3.194,3.853-6.042,6.57-8.332c1.397-1.192,2.869-2.122,4.234-2.988c1.383-0.884,2.764-1.767,4.143-2.648
					c2.758-1.763,5.508-3.521,8.247-5.272c10.976-6.973,21.777-13.836,32.23-20.477c10.473-6.61,20.597-12.999,30.198-19.058
					c2.402-1.512,4.771-3.003,7.105-4.472c1.174-0.734,2.338-1.463,3.493-2.186c1.251-0.739,2.545-1.394,3.905-1.84
					c5.41-1.935,11.312-1.298,15.968,1.096c0.59,0.288,1.136,0.651,1.699,0.972c0.539,0.361,1.057,0.745,1.577,1.121
					c0.494,0.428,1.012,0.855,1.469,1.284c0.429,0.449,0.805,0.819,1.271,1.325c1.568,1.778,3.1,3.515,4.594,5.208
					c2.977,3.396,5.801,6.616,8.454,9.643c5.307,6.054,9.934,11.331,13.745,15.678c3.794,4.361,6.775,7.788,8.807,10.125
					C327.368,147.643,328.45,148.891,328.45,148.891z"/>
			</g>
			<g>
				<path style="fill:#FF616D;" d="M256.972,150.332c0,0,0.737,0.569,2.187,1.237c1.441,0.677,3.588,1.473,6.241,2.009
					c1.324,0.275,2.778,0.451,4.31,0.535c1.532,0.077,3.151,0.016,4.784-0.241c3.268-0.491,6.596-1.857,9.271-4.107
					c1.335-1.128,2.558-2.392,3.496-3.804c0.935-1.427,1.683-2.957,2.209-4.519c1.054-3.133,1.333-6.296,1.317-8.994
					c-0.04-2.705-0.371-4.966-0.713-6.523c-0.177-0.777-0.347-1.383-0.49-1.788c-0.14-0.406-0.247-0.612-0.247-0.612
					s0.566,0.749,1.14,2.278c0.583,1.517,1.223,3.777,1.512,6.576c0.279,2.786,0.232,6.155-0.794,9.609
					c-0.486,1.729-1.27,3.45-2.307,5.051c-1.046,1.616-2.375,3.049-3.871,4.255c-1.498,1.212-3.168,2.23-4.93,2.941
					c-1.767,0.7-3.593,1.131-5.37,1.337c-1.781,0.208-3.511,0.142-5.123-0.027c-1.615-0.169-3.109-0.517-4.459-0.904
					c-2.699-0.793-4.793-1.865-6.159-2.743c-0.685-0.438-1.188-0.833-1.517-1.118C257.134,150.495,256.972,150.332,256.972,150.332z
					"/>
			</g>
			<g>
				<path style="fill:#FFDC15;" d="M271.087,132.969c-0.853-0.113-1.764-0.301-2.739-0.576c-1.594-0.45-2.522-2.107-2.072-3.702
					c0.45-1.595,2.104-2.523,3.702-2.072c1.959,0.552,4.621,0.908,6.188-0.535c1.649-1.518,2.156-4.865,1.358-8.954
					c-3.438-17.608-10.324-34.111-19.918-47.723c-5.442-7.722-17.761-21.159-29.489-22.435c-4.255-0.472-7.923,0.748-11.214,3.73
					c-1.228,1.113-3.124,1.019-4.237-0.209c-1.112-1.228-1.019-3.125,0.209-4.237c4.574-4.144,9.925-5.91,15.903-5.246
					c12.936,1.424,26.256,14.332,33.733,24.942c10.076,14.298,17.304,31.598,20.901,50.03c1.219,6.242,0.059,11.533-3.182,14.517
					C278.552,132.044,275.674,133.578,271.087,132.969z"/>
			</g>
		</g>
		
			<text transform="matrix(0.9913 0.1316 -0.1316 0.9913 172.3086 219.4047)" style="fill:#FFDC15; font-family:'Exo-Black'; font-size:48.6169px;">OUTLET</text>
		<path style="fill:#FFDC15;" d="M309.959,397.621L167.69,378.737c-5.621-0.746-9.573-5.908-8.827-11.529l15.307-115.32
			c0.746-5.621,5.908-9.573,11.529-8.827l142.269,18.885c5.621,0.746,9.573,5.908,8.827,11.529l-15.307,115.32
			C320.743,394.415,315.581,398.368,309.959,397.621z"/>
		<g>
			<g>
				<path style="fill:#919396;" d="M276.731,436.154l-6.786-2.303l-8.814-2.986c-4.836-1.641-8.11-6.161-8.158-11.272l-0.488-52.027
					l-0.051-5.162l-0.022-2.041l-0.014-2.019l9.479,3.215l5.425,1.84l8.476,2.87l0.056,4.063l0.108,8.306L276.731,436.154z"/>
			</g>
			<g>
				<path style="fill:#6D6E70;" d="M278.536,436.767l-1.805-0.613l-6.786-2.303c-4.44-1.507-7.451-5.65-7.495-10.336l-0.453-49.48
					l-0.084-8.414l-0.033-3.323l-0.003-0.737l5.425,1.84l0.02,0.003l8.456,2.868l9.481,3.205l0.055,4.073l0.11,8.216l0.673,49.499
					C286.146,435.215,282.282,438.031,278.536,436.767z"/>
			</g>
			<g>
				<path style="fill:#FFFFFF;" d="M328.375,346.964c-3.137,9.268-9.547,16.366-17.13,20.071l-0.001,0.01
					c-4.004,1.97-8.347,2.998-12.701,2.894c-2.535-0.054-5.071-0.481-7.551-1.325c-0.705-0.235-1.385-0.507-2.052-0.807l-0.01-0.001
					c-13.496-5.938-19.948-22.914-14.449-39.111c5.757-17,22.498-26.692,37.382-21.639c1.429,0.482,2.781,1.085,4.06,1.79
					c0.95,0.52,1.861,1.104,2.734,1.745l-0.001,0.01c0.424,0.298,0.836,0.615,1.236,0.951l-0.001,0.01
					C329.188,319.26,332.981,333.392,328.375,346.964z"/>
			</g>
			<g>
				<path style="fill:#1B75BA;" d="M314.551,342.285c-4.126,12.163-10.123,22.151-16.008,27.654
					c-3.996,3.737-7.94,5.402-11.222,4.291l-2.008-0.68l-9.479-3.215l-13.921-4.713l-9.479-3.215l-15.049-5.105l-7.288-2.471
					l25.038-73.868l57.226,19.389c1.602,0.545,2.921,1.709,3.958,3.39c1.098,1.76,1.879,4.083,2.339,6.847l-0.001,0.01
					C319.992,318.544,318.667,330.121,314.551,342.285z"/>
			</g>
			<g>
				
					<ellipse transform="matrix(0.321 -0.9471 0.9471 0.321 -136.3393 445.6253)" style="fill:#26A8DF;" cx="242.612" cy="317.897" rx="39" ry="15.541"/>
			</g>
			<g>
				<path style="fill:#E5E6E7;" d="M250.27,320.487c-3.246,9.556-7.823,17.594-12.492,22.673c-4.15,4.513-8.373,6.686-11.81,5.524
					c-24.495-8.416-60.784,5.742-60.784,5.742l19.085-56.308l9.632-28.41l9.452-27.889c0,0,20.203,33.308,44.767,41.511
					C255.418,285.813,256.378,302.444,250.27,320.487z"/>
			</g>
			<g>
				<path style="fill:#6D6E70;" d="M318.119,358.753c-0.114-0.015-0.223-0.069-0.306-0.161c-0.185-0.205-0.168-0.522,0.037-0.706
					c3.179-2.864,5.615-6.609,7.045-10.828c1.205-3.554,1.643-7.342,1.27-10.954c-0.029-0.275,0.171-0.52,0.446-0.549
					c0.276-0.031,0.521,0.172,0.549,0.446c0.389,3.753-0.068,7.687-1.318,11.377c-1.484,4.381-4.016,8.272-7.321,11.251
					C318.406,358.731,318.259,358.772,318.119,358.753z"/>
			</g>
			<g>
				<path style="fill:#6D6E70;" d="M319.647,359.536c-0.114-0.015-0.223-0.069-0.306-0.161c-0.185-0.205-0.168-0.522,0.037-0.706
					c3.339-3.01,5.899-6.944,7.402-11.378c1.265-3.734,1.726-7.714,1.333-11.509c-0.029-0.275,0.172-0.52,0.446-0.549
					c0.279-0.033,0.521,0.173,0.549,0.446c0.407,3.937-0.07,8.063-1.382,11.932c-1.558,4.596-4.214,8.676-7.679,11.8
					C319.935,359.514,319.787,359.555,319.647,359.536z"/>
			</g>
			<path style="fill:#26A8DF;" d="M308.212,302.673l-6.035-2.294l-6.058-2.224l-6.079-2.158c-2.023-0.729-4.061-1.412-6.095-2.11
				l-6.105-2.077c-4.087-1.332-8.158-2.715-12.259-4.005c-0.187-0.058-0.396-0.082-0.602-0.061c-0.82,0.085-1.416,0.819-1.331,1.639
				l0.001,0.01c0.089,0.853,0.142,1.825,0.167,2.753c0.029,0.938,0.032,1.884,0.016,2.829c-0.021,0.946-0.041,1.892-0.106,2.839
				c-0.032,0.948-0.093,1.895-0.175,2.842c-0.061,0.948-0.157,1.894-0.271,2.839c-0.101,0.946-0.208,1.892-0.361,2.833
				c-0.155,0.94-0.249,1.89-0.424,2.828l-0.494,2.821l-0.596,2.804c-0.194,0.937-0.4,1.871-0.643,2.797l-0.693,2.791l-0.798,2.765
				c-0.253,0.928-0.518,1.852-0.832,2.76l-0.888,2.749c-0.274,0.927-0.651,1.813-0.964,2.727l-0.966,2.739l1.36-2.568
				c0.436-0.865,0.916-1.714,1.305-2.602l1.197-2.656c0.41-0.883,0.771-1.785,1.12-2.693l1.049-2.726l0.928-2.772
				c0.317-0.923,0.619-1.851,0.862-2.796l0.772-2.826l0.671-2.855c0.236-0.95,0.392-1.917,0.575-2.878
				c0.19-0.961,0.334-1.929,0.472-2.9c0.151-0.968,0.283-1.94,0.381-2.917c0.245-1.948,0.371-3.912,0.426-5.882
				c0.029-0.985,0.037-1.972,0.017-2.964c-0.005-0.262-0.016-0.52-0.024-0.778c3.403,1.102,6.818,2.166,10.225,3.255l6.167,1.884
				c2.058,0.623,4.111,1.26,6.178,1.852l6.194,1.804l6.215,1.738l6.237,1.668c2.083,0.544,4.173,1.068,6.27,1.569
				C312.221,304.247,310.22,303.45,308.212,302.673z"/>
			<g style="opacity:0.25;">
				<path style="fill:#231F20;" d="M311.246,367.035l-0.001,0.01c-4.004,1.97-8.347,2.998-12.701,2.894
					c-3.996,3.737-7.94,5.402-11.222,4.291l-2.008-0.68l0.11,8.216l-9.481-3.125l-13.945-4.605l-9.512-6.468l-0.051-5.162
					l-15.049-5.105l15.028,3.064l9.468,1.933l5.422,1.103l0.02,0.003l21.609,4.402l0.01,0.001l3.241,0.662
					c22.881-26.459,24.68-48.757,23.742-59.624c-0.393-4.561-1.266-7.108-1.266-7.108c0.602,0.635,1.149,1.302,1.66,2.006
					c1.098,1.76,1.879,4.083,2.339,6.847l-0.001,0.01c0.424,0.298,0.836,0.615,1.236,0.951l-0.001,0.01
					C324.533,328.72,315.87,354.999,311.246,367.035z"/>
			</g>
			<g style="opacity:0.25;">
				<path style="fill:#231F20;" d="M237.778,343.16c-4.15,4.513-8.373,6.686-11.81,5.524c-24.495-8.416-60.784,5.742-60.784,5.742
					l19.085-56.308l9.632-28.41l13.488-9.578c0,0,6.437,41.256-13.128,82.258C194.262,342.387,218.674,336.912,237.778,343.16z"/>
			</g>
			<g>
				
					<ellipse transform="matrix(0.321 -0.9471 0.9471 0.321 -158.302 373.4062)" style="fill:#FFFFFF;" cx="181.264" cy="297.104" rx="60.333" ry="18.549"/>
			</g>
			<g>
				<path style="fill:#A5A7AA;" d="M189.251,299.808c-6.793,20.02-15.577,36.185-22.233,41.949
					c-2.154,1.863-4.092,2.634-5.656,2.104c-6.419-2.184-4.331-25.431,4.644-51.931c8.985-26.498,21.468-46.217,27.888-44.043
					c1.998,0.679,3.181,3.398,3.568,7.626C198.348,264.861,195.425,281.562,189.251,299.808z"/>
			</g>
			<g style="opacity:0.25;">
				<path style="fill:#231F20;" d="M189.251,299.808c-6.793,20.02-15.577,36.185-22.233,41.949
					c-0.888-9.348,2.025-26.05,8.21-44.295c6.795-20.03,15.578-36.195,22.233-41.949
					C198.348,264.861,195.425,281.562,189.251,299.808z"/>
			</g>
			<path style="fill:#F9AE40;" d="M135.087,279.463c-11.845,31.253,0.813,47.298,9.744,52.367c0.441,0.25,0.866,0.468,1.274,0.663
				l-35.342,11.742c0.563-0.288,22.223-11.778,15.269-23.152c-7.045-11.527-43.26-12.279-43.26-12.279s27.05-6.195,31.052-17.345
				c4.001-11.141-31.177-34.916-31.177-34.916s37.728,2.658,43.454-4.38c5.653-6.947-2.476-28.544-2.685-29.096
				c0.435,0.522,16.537,19.505,28.67,14.892c13.598-5.166,11.893-19,11.809-19.657l10.047,30.628
				C164.991,244.171,147.509,246.683,135.087,279.463z"/>
			<path style="fill:#FFDC15;" d="M135.087,279.463c-11.845,31.253,0.813,47.298,9.744,52.367l-16.497,2.309
				c14.116-17.656-17.552-29.869-17.552-29.869c30.736-13.745,0.83-39.232,0.83-39.232c38.858,7.145,27.95-19.966,27.644-20.702
				c15.268,11.59,26.42-9.123,26.42-9.123l8.267,13.717C164.991,244.171,147.509,246.683,135.087,279.463z"/>
		</g>
	</g>
</g>
<g id="DESIGNED_BY_FREEPIK">
	<g>
		<g id="XMLID_319_">
			<g id="XMLID_338_">
				<path id="XMLID_346_" style="fill:#F9FBFC;" d="M260.104,465.466c-0.433,0.442-0.804,0.931-1.108,1.453l-0.466-0.241
					c-0.066-0.298-0.349-0.503-0.658-0.467c-0.331,0.039-0.568,0.339-0.529,0.67c0.039,0.331,0.339,0.567,0.67,0.529
					c0.065-0.008,0.127-0.026,0.184-0.053l0.451,0.234c-0.251,0.554-0.433,1.139-0.539,1.744l0.746,0.131
					c0.23-1.306,0.85-2.506,1.792-3.472L260.104,465.466z"/>
				<path id="XMLID_345_" style="fill:#F9FBFC;" d="M265.592,463.163c-0.171,0-0.341,0.006-0.51,0.018l-0.073-0.627
					c0.188-0.148,0.296-0.389,0.266-0.645c-0.046-0.393-0.402-0.674-0.796-0.628c-0.392,0.047-0.674,0.402-0.628,0.796
					c0.03,0.254,0.19,0.461,0.405,0.563l0.073,0.624c-0.714,0.116-1.403,0.332-2.06,0.646l0.327,0.684
					c0.934-0.447,1.941-0.674,2.995-0.674c0.496,0,0.993,0.054,1.475,0.158l0.161-0.741
					C266.692,463.222,266.143,463.163,265.592,463.163z"/>
				<path id="XMLID_344_" style="fill:#F9FBFC;" d="M272.194,465.711c0.331-0.041,0.566-0.342,0.525-0.673
					c-0.04-0.331-0.342-0.566-0.672-0.525c-0.31,0.038-0.535,0.304-0.53,0.608l-0.416,0.363c-0.418-0.43-0.89-0.813-1.408-1.139
					l-0.403,0.641c1.134,0.715,2.02,1.727,2.563,2.926l0.691-0.313c-0.251-0.555-0.567-1.072-0.942-1.545l0.402-0.352
					C272.064,465.716,272.129,465.719,272.194,465.711z"/>
				<path id="XMLID_343_" style="fill:#F9FBFC;" d="M265.044,473.372c-0.386,0.023-0.774,0.034-1.157,0.034
					c-0.88,0-1.732-0.061-2.478-0.179c-0.391-0.063-0.847-0.155-1.27-0.292c1.046,1.86,3.069,3.125,5.389,3.125
					c2.855,0,5.262-1.916,5.949-4.504c-0.682,0.449-1.506,0.825-2.459,1.122C267.839,473.047,266.464,473.286,265.044,473.372z"/>
				<path id="XMLID_339_" style="fill:#F9FBFC;" d="M265.592,464.68c-3.353,0-6.079,2.666-6.079,5.943
					c0,0.426,0.046,0.849,0.137,1.262c0.674,0.482,2.706,0.89,5.348,0.73c2.879-0.173,5.297-0.957,6.672-2.158
					c-0.005-0.195-0.021-0.391-0.045-0.582C271.244,466.913,268.65,464.68,265.592,464.68z M263.433,471.194
					c-1.021,0-1.85-0.83-1.85-1.85c0-1.02,0.829-1.85,1.85-1.85c1.02,0,1.85,0.83,1.85,1.85
					C265.282,470.364,264.452,471.194,263.433,471.194z M268.17,470.286c-0.75,0-1.36-0.61-1.36-1.36s0.61-1.36,1.36-1.36
					s1.36,0.61,1.36,1.36S268.92,470.286,268.17,470.286z"/>
			</g>
			<path id="XMLID_336_" style="fill:#F9FBFC;" d="M281.596,466.547c-0.295-0.116-0.806-0.31-1.383-0.237
				c-0.551,0.068-0.844,0.34-0.844,1.006v0.866h2.227v1.718h-2.227v5.454h-1.932V469.9h-1.34v-1.718h1.34v-0.888
				c0-1.681,0.895-2.783,2.568-2.783c0.643,0,1.157,0.122,1.59,0.309V466.547z"/>
			<path id="XMLID_334_" style="fill:#F9FBFC;" d="M286.298,469.879c-0.177-0.03-0.357-0.047-0.526-0.047
				c-0.896,0-1.51,0.548-1.51,1.614v3.907h-1.932v-7.172h1.873v0.785c0.451-0.674,1.14-0.978,2.021-0.978
				c0.414,0,0.848,0.128,1.094,0.337L286.298,469.879z"/>
			<path id="XMLID_331_" style="fill:#F9FBFC;" d="M293.965,471.757c0,0.222-0.015,0.488-0.037,0.651h-5.084
				c0.207,1.036,0.933,1.487,1.843,1.487c0.621,0,1.295-0.251,1.814-0.688l1.132,1.243c-0.814,0.747-1.851,1.088-3.057,1.088
				c-2.198,0-3.723-1.495-3.723-3.753c0-2.257,1.48-3.797,3.626-3.797C292.544,467.989,293.958,469.522,293.965,471.757z
				 M288.851,471.091h3.175c-0.177-0.918-0.732-1.437-1.561-1.437C289.554,469.654,289.02,470.202,288.851,471.091z"/>
			<path id="XMLID_328_" style="fill:#F9FBFC;" d="M301.618,471.757c0,0.222-0.015,0.488-0.037,0.651h-5.084
				c0.207,1.036,0.932,1.487,1.843,1.487c0.621,0,1.295-0.251,1.813-0.688l1.132,1.243c-0.814,0.747-1.851,1.088-3.057,1.088
				c-2.198,0-3.723-1.495-3.723-3.753c0-2.257,1.48-3.797,3.626-3.797C300.197,467.989,301.611,469.522,301.618,471.757z
				 M296.504,471.091h3.176c-0.178-0.918-0.733-1.437-1.563-1.437C297.207,469.654,296.674,470.202,296.504,471.091z"/>
			<path id="XMLID_325_" style="fill:#F9FBFC;" d="M309.964,471.765c0,2.153-1.495,3.774-3.471,3.774
				c-0.963,0-1.644-0.378-2.109-0.933v3.708h-1.925v-10.133h1.888v0.792c0.466-0.584,1.154-0.984,2.139-0.984
				C308.469,467.989,309.964,469.61,309.964,471.765z M304.287,471.765c0,1.132,0.748,1.976,1.843,1.976
				c1.14,0,1.851-0.881,1.851-1.976c0-1.096-0.711-1.977-1.851-1.977C305.035,469.788,304.287,470.632,304.287,471.765z"/>
			<path id="XMLID_322_" style="fill:#F9FBFC;" d="M313.067,465.836c0,0.695-0.54,1.229-1.235,1.229
				c-0.696,0-1.229-0.533-1.229-1.229c0-0.696,0.533-1.244,1.229-1.244C312.527,464.592,313.067,465.14,313.067,465.836z
				 M312.809,475.354h-1.932v-7.172h1.932V475.354z"/>
			<path id="XMLID_320_" style="fill:#F9FBFC;" d="M316.032,470.735l2.701-2.554h2.369l-3.48,3.375l3.501,3.797h-2.376l-2.716-2.901
				v2.901h-1.932v-10.657h1.932V470.735z"/>
		</g>
		<g>
			<path style="fill:#F9FBFC;" d="M184.413,475.289v-1.055c-0.527,0.718-1.392,1.23-2.388,1.23c-1.846,0-3.149-1.406-3.149-3.706
				c0-2.256,1.289-3.721,3.149-3.721c0.952,0,1.816,0.469,2.388,1.245v-3.765h1.099v9.771H184.413z M184.413,473.37v-3.208
				c-0.396-0.615-1.245-1.143-2.124-1.143c-1.421,0-2.27,1.172-2.27,2.739c0,1.567,0.85,2.725,2.27,2.725
				C183.167,474.483,184.017,473.985,184.413,473.37z"/>
			<path style="fill:#F9FBFC;" d="M186.932,471.744c0-2.051,1.465-3.706,3.486-3.706c2.139,0,3.398,1.67,3.398,3.794v0.278h-5.728
				c0.088,1.333,1.025,2.446,2.549,2.446c0.806,0,1.626-0.322,2.183-0.894l0.527,0.718c-0.703,0.703-1.655,1.084-2.813,1.084
				C188.44,475.465,186.932,473.956,186.932,471.744z M190.403,468.946c-1.509,0-2.256,1.274-2.314,2.358h4.644
				C192.718,470.25,192.015,468.946,190.403,468.946z"/>
			<path style="fill:#F9FBFC;" d="M194.607,474.352l0.571-0.791c0.469,0.542,1.362,1.011,2.329,1.011c1.084,0,1.67-0.513,1.67-1.216
				c0-1.714-4.38-0.659-4.38-3.281c0-1.099,0.952-2.036,2.637-2.036c1.201,0,2.051,0.454,2.622,1.025l-0.513,0.762
				c-0.424-0.513-1.201-0.893-2.109-0.893c-0.967,0-1.567,0.483-1.567,1.113c0,1.553,4.379,0.527,4.379,3.281
				c0,1.186-0.952,2.139-2.783,2.139C196.306,475.465,195.325,475.113,194.607,474.352z"/>
			<path style="fill:#F9FBFC;" d="M201.477,466.471c0-0.41,0.337-0.747,0.732-0.747c0.41,0,0.747,0.337,0.747,0.747
				c0,0.41-0.337,0.732-0.747,0.732C201.814,467.203,201.477,466.881,201.477,466.471z M201.667,475.289v-7.075h1.099v7.075H201.667
				z"/>
			<path style="fill:#F9FBFC;" d="M204.582,477.105l0.557-0.82c0.586,0.703,1.289,0.967,2.3,0.967c1.172,0,2.27-0.571,2.27-2.124
				v-1.011c-0.512,0.718-1.376,1.26-2.373,1.26c-1.845,0-3.149-1.377-3.149-3.662c0-2.271,1.289-3.677,3.149-3.677
				c0.952,0,1.802,0.469,2.373,1.245v-1.069h1.099v6.87c0,2.344-1.641,3.076-3.369,3.076
				C206.237,478.16,205.417,477.926,204.582,477.105z M209.708,473.253v-3.091c-0.381-0.615-1.23-1.143-2.109-1.143
				c-1.421,0-2.271,1.128-2.271,2.695c0,1.553,0.849,2.695,2.271,2.695C208.478,474.41,209.328,473.868,209.708,473.253z"/>
			<path style="fill:#F9FBFC;" d="M217.413,475.289v-4.629c0-1.245-0.629-1.641-1.581-1.641c-0.865,0-1.685,0.527-2.095,1.099v5.171
				h-1.099v-7.075h1.099v1.025c0.498-0.586,1.464-1.201,2.519-1.201c1.48,0,2.256,0.747,2.256,2.285v4.966H217.413z"/>
			<path style="fill:#F9FBFC;" d="M219.933,471.744c0-2.051,1.465-3.706,3.486-3.706c2.138,0,3.398,1.67,3.398,3.794v0.278h-5.728
				c0.088,1.333,1.025,2.446,2.549,2.446c0.805,0,1.626-0.322,2.183-0.894l0.527,0.718c-0.703,0.703-1.655,1.084-2.813,1.084
				C221.441,475.465,219.933,473.956,219.933,471.744z M223.404,468.946c-1.509,0-2.256,1.274-2.314,2.358h4.643
				C225.718,470.25,225.015,468.946,223.404,468.946z"/>
			<path style="fill:#F9FBFC;" d="M233.35,475.289v-1.055c-0.527,0.718-1.392,1.23-2.388,1.23c-1.845,0-3.149-1.406-3.149-3.706
				c0-2.256,1.289-3.721,3.149-3.721c0.952,0,1.817,0.469,2.388,1.245v-3.765h1.098v9.771H233.35z M233.35,473.37v-3.208
				c-0.396-0.615-1.245-1.143-2.124-1.143c-1.421,0-2.27,1.172-2.27,2.739c0,1.567,0.85,2.725,2.27,2.725
				C232.105,474.483,232.954,473.985,233.35,473.37z"/>
			<path style="fill:#F9FBFC;" d="M239.692,475.289v-9.771h1.099v3.765c0.572-0.776,1.421-1.245,2.388-1.245
				c1.846,0,3.15,1.465,3.15,3.721c0,2.3-1.304,3.706-3.15,3.706c-0.996,0-1.86-0.513-2.388-1.23v1.055H239.692z M242.9,474.483
				c1.436,0,2.285-1.157,2.285-2.725c0-1.567-0.85-2.739-2.285-2.739c-0.864,0-1.728,0.527-2.109,1.143v3.208
				C241.171,473.985,242.036,474.483,242.9,474.483z"/>
			<path style="fill:#F9FBFC;" d="M247.528,477.062c0.161,0.073,0.425,0.117,0.601,0.117c0.483,0,0.805-0.161,1.055-0.747
				l0.468-1.069l-2.959-7.148h1.187l2.358,5.801l2.344-5.801h1.201l-3.545,8.511c-0.425,1.025-1.143,1.421-2.08,1.436
				c-0.234,0-0.601-0.044-0.806-0.102L247.528,477.062z"/>
		</g>
	</g>
</g>
</svg>
