<?xml version="1.0" encoding="utf-8"?>
<!-- Generator: Adobe Illustrator 27.5.0, SVG Export Plug-In . SVG Version: 6.00 Build 0)  -->
<svg version="1.1" xmlns="http://www.w3.org/2000/svg" xmlns:xlink="http://www.w3.org/1999/xlink" x="0px" y="0px"
	 viewBox="0 0 3710 3710" style="enable-background:new 0 0 3710 3710;" xml:space="preserve">
<g id="Background">
	<g>
		<g>
			<rect style="fill:#FFFFFF;" width="3710" height="3710"/>
		</g>
	</g>
</g>
<g id="Illustration">
	<g>
		
			<linearGradient id="SVGID_1_" gradientUnits="userSpaceOnUse" x1="3443.3584" y1="3585.7651" x2="1381.9463" y2="1360.7485" gradientTransform="matrix(0.9998 0.0175 -0.0175 0.9998 9.2261 5.1272)">
			<stop  offset="0" style="stop-color:#DAE3FE"/>
			<stop  offset="1" style="stop-color:#E9EFFD"/>
		</linearGradient>
		<path style="fill:url(#SVGID_1_);" d="M3124.134,2377.675c-294.766,656.989-1047.283,928.242-1632.151,869.528
			c-159.693-16.031-480.998-48.287-728.087-290.268c-474.517-464.71-383.539-1417.159,88.158-1970.599
			c60.745-71.272,480.931-548.554,1122.404-530.856c469.651,12.958,794.716,284.067,834.229,317.825
			c49.915,42.645,159.883,143.833,257.803,303.022C3296.566,1450.368,3308.333,1967.122,3124.134,2377.675z"/>
		<g>
			
				<linearGradient id="SVGID_00000039123803182584838110000007108371409965173410_" gradientUnits="userSpaceOnUse" x1="-943.5002" y1="2847.9644" x2="-374.961" y2="1142.3418" gradientTransform="matrix(-1 0 0 1 1155.7772 0)">
				<stop  offset="0" style="stop-color:#09005D"/>
				<stop  offset="1" style="stop-color:#1A0F91"/>
			</linearGradient>
			<path style="fill:url(#SVGID_00000039123803182584838110000007108371409965173410_);" d="M631.263,2909.839
				c0,24.46,20.032,44.473,44.516,44.473h2407.246c24.484,0,44.516-20.013,44.516-44.473l20.031-1383.378
				c0-24.46-28.818-72.213-81.633-68.624l-2352.627-60.874c-30.72-0.795-60.423,11.029-82.177,32.712
				c-21.754,21.683-33.657,51.33-32.931,82.022L631.263,2909.839z"/>
			
				<linearGradient id="SVGID_00000096745827187123437210000002940122503098130859_" gradientUnits="userSpaceOnUse" x1="2828.6267" y1="1334.1245" x2="755.0189" y2="3154.7053">
				<stop  offset="0" style="stop-color:#4042E2"/>
				<stop  offset="1" style="stop-color:#4F52FF"/>
			</linearGradient>
			<path style="fill:url(#SVGID_00000096745827187123437210000002940122503098130859_);" d="M675.211,2867.173
				c0,23.163,18.952,42.115,42.115,42.115h2307.646c23.163,0,42.115-18.952,42.115-42.115l18.902-1255.843
				c-2.226-75.574-68.483-102.735-108.647-101.132l-2254.779-60.492c-21.582-0.579-42.449,7.736-57.735,22.983
				c-15.286,15.247-23.693,36.113-23.151,57.696L675.211,2867.173z"/>
			<g>
				<path style="fill:#91B3FA;" d="M3042.152,2270.559c-0.031,0-0.062,0-0.092,0c-3.41-0.049-6.133-2.852-6.081-6.265l1.494-101.847
					c0.049-3.376,2.803-6.081,6.167-6.081c0.031,0,0.062,0,0.093,0c3.41,0.049,6.133,2.853,6.08,6.265l-1.494,101.847
					C3048.269,2267.855,3045.516,2270.559,3042.152,2270.559z"/>
				<path style="fill:#91B3FA;" d="M3045.817,2020.982c-0.031,0-0.062,0-0.092,0c-3.41-0.049-6.133-2.859-6.081-6.265l5.726-390.075
					c-0.108-23.17-7.14-41.67-20.906-54.86c-25.696-24.618-66.491-23.361-68.21-23.281l-720.677-19.326
					c-3.407-0.086-6.096-2.926-6.003-6.333c0.089-3.407,2.708-6.308,6.336-6l720.249,19.326c4.482-0.265,47.917-1.016,76.844,26.7
					c16.273,15.592,24.587,37.074,24.71,63.836l-5.729,390.199C3051.935,2018.277,3049.181,2020.982,3045.817,2020.982z"/>
			</g>
			
				<linearGradient id="SVGID_00000034810047364984430350000000408576333337726112_" gradientUnits="userSpaceOnUse" x1="1819.5221" y1="1532.4562" x2="1853.9065" y2="2962.884">
				<stop  offset="0" style="stop-color:#09005D"/>
				<stop  offset="1" style="stop-color:#1A0F91"/>
			</linearGradient>
			<path style="fill:url(#SVGID_00000034810047364984430350000000408576333337726112_);" d="M441.63,3069.15h2826.74
				c3.11,0,5.654-2.544,5.654-5.654v-110.241c0-3.11-2.544-5.654-5.654-5.654H441.63c-3.109,0-5.654,2.544-5.654,5.654v110.241
				C435.976,3066.606,438.52,3069.15,441.63,3069.15z"/>
		</g>
		<g>
			<path style="fill:#91B3FA;" d="M2552.656,785.398l-1443.927-8.84c-47.454-0.291-85.407,39.347-83.057,86.743l99.338,2051.476
				h1606.822l89.217-1832.884L2552.656,785.398z"/>
			<path style="fill:#7D97F4;" d="M2612.698,1073.106c-47.036-1.655-83.197-42.194-79.489-89.112l15.479-195.893l272.646,292.59
				L2612.698,1073.106z"/>
			<g>
				<g>
					<path style="fill:#BDD0FB;" d="M1350.835,2087.98c200.161-3.241,968.532-16.497,1162.559-19.848
						c24.474-0.423,44.596,14.405,44.467,32.727l0,0c-0.124,17.441-18.658,31.627-41.951,32.109l-1161.84,24.056
						c-22.38,0.463-41.616-11.912-44.377-28.55l-0.699-4.209C1305.835,2105.24,1325.239,2088.394,1350.835,2087.98z"/>
					<path style="fill:#BDD0FB;" d="M1336.824,2291.646L1336.824,2291.646c3.367,4.288,9.548,6.901,16.181,6.84l797.716-7.325
						c10.021-0.092,18.073-6.161,18.126-13.661l0.279-39.353c0.055-7.819-8.577-14.136-19.02-13.917l-775.536,16.211
						C1340.028,2241.162,1319.281,2269.307,1336.824,2291.646z"/>
				</g>
				<g>
					<path style="fill:#BDD0FB;" d="M1346.978,2443.967c200.161-3.241,968.532-16.497,1162.559-19.847
						c24.474-0.423,44.596,14.405,44.467,32.727l0,0c-0.123,17.441-18.658,31.627-41.951,32.109l-1161.84,24.056
						c-22.38,0.463-41.616-11.912-44.378-28.55l-0.699-4.209C1301.979,2461.228,1321.383,2444.382,1346.978,2443.967z"/>
					<path style="fill:#BDD0FB;" d="M1332.967,2647.634L1332.967,2647.634c3.368,4.289,9.548,6.901,16.181,6.84l797.717-7.325
						c10.021-0.092,18.073-6.161,18.126-13.661l0.279-39.353c0.055-7.819-8.577-14.136-19.02-13.917l-775.536,16.211
						C1336.171,2597.15,1315.424,2625.295,1332.967,2647.634z"/>
				</g>
				<g>
					<g>
						<g style="opacity:0.8;">
							<path style="fill:#FFFFFF;" d="M2269.391,1248.616c-4.236-5.207-10.879-7.369-17.926-7.221l-641.589,13.459l-16.207-51.482
								c-2.253-7.172-8.997-11.765-16.625-11.565l-88.089,2.314c-9.446,0.248-17.096,6.816-17.096,16.244
								c0,9.427,7.65,15.614,17.096,15.391l75.278-1.779l136.213,435.259c2.293,7.326,9.171,12.365,16.968,12.469l450.328,6.046
								c10.569,0.142,19.149-6.491,19.149-16.483c0-9.991-8.58-16.833-19.149-16.947l-437.188-4.713l-35.088-113.011l480.433,0.728
								c9.837,0.015,18.507-6.423,21.264-15.35l75.826-245.171C2274.964,1260.411,2273.632,1253.827,2269.391,1248.616z"/>
							<path style="fill:#FFFFFF;" d="M1783.291,1698.555c-37.052-0.576-67.029,28.262-67.029,64.283s29.976,66.111,67.029,67.085
								c37.276,0.979,67.77-27.847,67.77-64.266C1851.061,1729.237,1820.567,1699.134,1783.291,1698.555z M1783.291,1794.891
								c-17.318-0.406-31.372-14.45-31.372-31.308c0-16.859,14.054-30.316,31.372-29.997c17.366,0.319,31.533,14.366,31.533,31.312
								C1814.824,1781.843,1800.657,1795.297,1783.291,1794.891z"/>
							<path style="fill:#FFFFFF;" d="M2083.485,1703.222c-38.888-0.605-70.347,28.925-70.347,65.823
								c0,36.898,31.459,67.743,70.347,68.764c39.129,1.028,71.143-28.489,71.143-65.806
								C2154.628,1734.686,2122.614,1703.829,2083.485,1703.222z M2083.485,1801.919c-18.176-0.426-32.927-14.822-32.927-32.091
								c0-17.271,14.75-31.05,32.927-30.716c18.229,0.335,33.1,14.734,33.1,32.096
								C2116.585,1788.569,2101.714,1802.345,2083.485,1801.919z"/>
						</g>
					</g>
					<path style="opacity:0.81;fill:#FFFFFF;" d="M1901.957,1991.102c-303.775,0-550.911-247.138-550.911-550.913
						s247.137-550.913,550.911-550.913s550.915,247.138,550.915,550.913S2205.732,1991.102,1901.957,1991.102z M1901.957,916.689
						c-288.659,0-523.498,234.84-523.498,523.499s234.839,523.499,523.498,523.499s523.501-234.84,523.501-523.499
						S2190.616,916.689,1901.957,916.689z"/>
				</g>
			</g>
		</g>
		<g>
			
				<linearGradient id="SVGID_00000102525749722328971550000013084835669026175653_" gradientUnits="userSpaceOnUse" x1="1879.2477" y1="1020.5325" x2="1901.6632" y2="1213.3066">
				<stop  offset="0" style="stop-color:#E1473D"/>
				<stop  offset="1" style="stop-color:#E9605A"/>
			</linearGradient>
			<path style="fill:url(#SVGID_00000102525749722328971550000013084835669026175653_);" d="M1909.182,1508.761
				c-8.506,0.557-16.42-3.401-20.823-10.471l-73.949-118.746c-6.93-11.128-3.196-26.37,8.336-34.041
				c11.523-7.667,26.478-4.866,33.399,6.257l51.285,82.428l67.669-137.818c6.073-12.368,20.664-18.042,32.58-12.677
				c11.915,5.363,16.656,19.728,10.591,32.089l-87.448,178.244c-4.005,8.161-11.965,13.778-20.787,14.664
				C1909.751,1508.718,1909.467,1508.742,1909.182,1508.761z"/>
		</g>
		<g>
			
				<linearGradient id="SVGID_00000183207661701249381380000003788406431682850697_" gradientUnits="userSpaceOnUse" x1="1337.5309" y1="1222.5048" x2="953.7377" y2="2161.4292">
				<stop  offset="0" style="stop-color:#E1473D"/>
				<stop  offset="1" style="stop-color:#E9605A"/>
			</linearGradient>
			<path style="fill:url(#SVGID_00000183207661701249381380000003788406431682850697_);" d="M872.031,1951.624
				c-4.611,0-8.416-3.666-8.559-8.306c-0.094-3.114-2.073-77.162,19.727-156.236c29.365-106.507,88.255-169.63,170.309-182.547
				c40.202-6.331,76.034,3.161,106.487,28.209c99.267,81.646,108.708,300.703,109.062,309.988c0.181,4.729-3.505,8.706-8.234,8.886
				c-4.764,0.112-8.706-3.507-8.886-8.234c-0.085-2.197-9.507-220.677-102.841-297.42c-26.505-21.792-57.764-30.044-92.924-24.502
				c-182.375,28.709-175.664,318.412-175.573,321.335c0.144,4.729-3.574,8.679-8.302,8.824
				C872.208,1951.623,872.119,1951.624,872.031,1951.624z"/>
			
				<linearGradient id="SVGID_00000035533034860746254320000001195648274684503977_" gradientUnits="userSpaceOnUse" x1="1265.7106" y1="2056.0137" x2="470.7107" y2="3221.0991">
				<stop  offset="0" style="stop-color:#FF928E"/>
				<stop  offset="1" style="stop-color:#FE7062"/>
			</linearGradient>
			<path style="fill:url(#SVGID_00000035533034860746254320000001195648274684503977_);" d="M511.179,2889.604L658.382,1874.49
				l552.985-9.297l178.235,1080.831h-830.54C529.519,2946.023,506.867,2919.335,511.179,2889.604z"/>
			
				<linearGradient id="SVGID_00000104666285076810202580000015364120685967301311_" gradientUnits="userSpaceOnUse" x1="2210.9541" y1="2134.1687" x2="1628.4093" y2="2319.2122">
				<stop  offset="0" style="stop-color:#FF928E"/>
				<stop  offset="1" style="stop-color:#FE7062"/>
			</linearGradient>
			<path style="fill:url(#SVGID_00000104666285076810202580000015364120685967301311_);" d="M1318.765,1874.49l-107.398-9.297
				l178.235,1080.831h106.62c21.617,0,37.772-20.208,33.365-41.735L1318.765,1874.49z"/>
			
				<linearGradient id="SVGID_00000166656825222709593020000004204976622136343738_" gradientUnits="userSpaceOnUse" x1="1234.9032" y1="1180.5571" x2="851.1089" y2="2119.4841">
				<stop  offset="0" style="stop-color:#E1473D"/>
				<stop  offset="1" style="stop-color:#E9605A"/>
			</linearGradient>
			<path style="fill:url(#SVGID_00000166656825222709593020000004204976622136343738_);" d="M1141.667,1949.3
				c-4.581,0-8.378-3.624-8.555-8.24c-0.085-2.197-9.507-220.677-102.839-297.42c-26.504-21.792-57.763-30.044-92.924-24.502
				c-182.233,28.687-175.664,318.414-175.575,321.337c0.141,4.729-3.576,8.679-8.304,8.821c-4.78,0.198-8.677-3.574-8.823-8.301
				c-0.094-3.114-2.073-77.162,19.729-156.236c29.363-106.507,88.255-169.63,170.31-182.547
				c40.207-6.33,76.034,3.161,106.487,28.209c99.265,81.646,108.707,300.703,109.06,309.988c0.181,4.729-3.505,8.706-8.234,8.886
				C1141.888,1949.297,1141.776,1949.3,1141.667,1949.3z"/>
		</g>
		<g>
			
				<linearGradient id="SVGID_00000077288830875185131120000013070900399927071664_" gradientUnits="userSpaceOnUse" x1="-3511.2415" y1="3174.4697" x2="-3299.728" y2="3174.4697" gradientTransform="matrix(-1 0 0 1 -688.4701 0)">
				<stop  offset="0" style="stop-color:#4042E2"/>
				<stop  offset="1" style="stop-color:#4F52FF"/>
			</linearGradient>
			<path style="fill:url(#SVGID_00000077288830875185131120000013070900399927071664_);" d="M2617.231,3164.24
				c36.235,3.132,99.122,8.22,148.7,10.402c29.802,1.312,46.959-1.606,56.841-5.563c-0.017,1.114-0.048,2.167-0.092,3.144
				c-0.234,5.217-4.474,9.391-9.743,9.685c-93.679,5.229-168.182,1.81-194.706,0.196c-5.485-0.334-8.753-6.294-5.948-10.97
				C2613.686,3168.795,2615.385,3166.504,2617.231,3164.24z"/>
			
				<linearGradient id="SVGID_00000126317217931800480680000004414363690860733570_" gradientUnits="userSpaceOnUse" x1="-3511.2537" y1="3133.0161" x2="-3305.7007" y2="3133.0161" gradientTransform="matrix(-1 0 0 1 -688.4701 0)">
				<stop  offset="0" style="stop-color:#09005D"/>
				<stop  offset="1" style="stop-color:#1A0F91"/>
			</linearGradient>
			<path style="fill:url(#SVGID_00000126317217931800480680000004414363690860733570_);" d="M2765.93,3174.641
				c-49.578-2.182-112.465-7.27-148.7-10.402c35.625-43.708,148.7-73.167,148.7-73.167h31.936
				c21.965,31.662,25.146,61.807,24.905,78.006C2812.89,3173.035,2795.732,3175.953,2765.93,3174.641z"/>
			
				<linearGradient id="SVGID_00000099657941939623592300000014268522348668503483_" gradientUnits="userSpaceOnUse" x1="-3491.7139" y1="3075.1406" x2="-3432.135" y2="3075.1406" gradientTransform="matrix(-1 0 0 1 -688.4701 0)">
				<stop  offset="0" style="stop-color:#FEBBBA"/>
				<stop  offset="1" style="stop-color:#FF928E"/>
			</linearGradient>
			<path style="fill:url(#SVGID_00000099657941939623592300000014268522348668503483_);" d="M2803.244,3038.936l-2.989,59.139
				c-0.324,6.404-5.117,11.786-11.531,12.703c-6.381,0.912-14.928,1.029-23.99-1.988c-5.575-1.856-9.714-6.553-10.742-12.284
				l-10.327-57.571H2803.244z"/>
			<g>
				
					<linearGradient id="SVGID_00000160868588010902238180000010109579053344711595_" gradientUnits="userSpaceOnUse" x1="-3888.7649" y1="3226.9185" x2="-3807.7095" y2="3226.9185" gradientTransform="matrix(-1 0 0 1 -688.4701 0)">
					<stop  offset="0" style="stop-color:#4042E2"/>
					<stop  offset="1" style="stop-color:#4F52FF"/>
				</linearGradient>
				<path style="fill:url(#SVGID_00000160868588010902238180000010109579053344711595_);" d="M3173.901,3232.462
					c15.714-2.833,22.823-13.382,25.804-24.661c0.02,0.102,0.04,0.203,0.059,0.303c2.312,11.897-3.048,24.228-13.762,30.092
					c-12.951,7.088-27.11,8.295-38.103,7.71c-11.794-0.628-22.62-6.936-28.57-17.031l-0.089-0.152
					C3131.078,3236.294,3147.696,3237.186,3173.901,3232.462z"/>
				
					<linearGradient id="SVGID_00000126301938194688398760000017638886636510806461_" gradientUnits="userSpaceOnUse" x1="-3888.1753" y1="3146.2585" x2="-3769.2017" y2="3146.2585" gradientTransform="matrix(-1 0 0 1 -688.4701 0)">
					<stop  offset="0" style="stop-color:#09005D"/>
					<stop  offset="1" style="stop-color:#1A0F91"/>
				</linearGradient>
				<path style="fill:url(#SVGID_00000126301938194688398760000017638886636510806461_);" d="M3099.814,3057.157h26.337
					c40.116-1.059,65.308,108.296,73.554,150.644c-2.981,11.279-10.091,21.828-25.804,24.661
					c-26.205,4.723-42.823,3.832-54.661-3.738c-21.673-36.86-32.418-90.845-37.583-122.351
					C3075.782,3070.542,3099.814,3057.157,3099.814,3057.157z"/>
			</g>
			
				<linearGradient id="SVGID_00000134963683055782210880000002827278576399785357_" gradientUnits="userSpaceOnUse" x1="-3826.3347" y1="3044.0725" x2="-3755.1316" y2="3044.0725" gradientTransform="matrix(-1 0 0 1 -688.4701 0)">
				<stop  offset="0" style="stop-color:#FEBBBA"/>
				<stop  offset="1" style="stop-color:#FF928E"/>
			</linearGradient>
			<path style="fill:url(#SVGID_00000134963683055782210880000002827278576399785357_);" d="M3122.766,3002.265l14.625,58.166
				c1.793,7.132-1.621,14.509-8.214,17.892c-8.181,4.198-19.7,8.61-30.285,7.333c-4.978-0.601-9.114-4.107-10.759-8.795
				l-21.47-61.197L3122.766,3002.265z"/>
			
				<linearGradient id="SVGID_00000123435893801099520480000014789452937628735390_" gradientUnits="userSpaceOnUse" x1="2980.4968" y1="3236.6333" x2="2733.7715" y2="2140.0771">
				<stop  offset="0" style="stop-color:#09005D"/>
				<stop  offset="1" style="stop-color:#1A0F91"/>
			</linearGradient>
			<path style="fill:url(#SVGID_00000123435893801099520480000014789452937628735390_);" d="M2608.309,2236.179
				c0,0,130.692,816.935,128.539,821.425c0,0,36.096,16.406,75.447,2.091c0,0-11.818-436.71-39.511-604.155
				c0,0,223.047,390.333,293.877,584.828c0,0,36.943-4.405,67.523-24.531c0,0-240.159-702.581-304.23-796.162L2608.309,2236.179z"/>
			
				<linearGradient id="SVGID_00000138563578928087511360000008884252951971205294_" gradientUnits="userSpaceOnUse" x1="3003.0803" y1="1969.588" x2="2639.8464" y2="2538.4265">
				<stop  offset="0" style="stop-color:#CB236D"/>
				<stop  offset="1" style="stop-color:#4C246D"/>
			</linearGradient>
			<path style="fill:url(#SVGID_00000138563578928087511360000008884252951971205294_);" d="M2767.566,2451.286
				c0.701,0,1.408-0.187,2.043-0.587c1.808-1.133,2.355-3.514,1.225-5.319l-48.84-78.01c-0.565-0.899-1.471-1.53-2.509-1.739
				l-35.942-7.234c-2.102-0.415-4.127,0.939-4.549,3.023c-0.418,2.091,0.935,4.127,3.022,4.549l34.313,6.904l47.959,76.601
				C2765.024,2450.644,2766.282,2451.286,2767.566,2451.286z"/>
			
				<linearGradient id="SVGID_00000158729165181212280470000012068476054237068690_" gradientUnits="userSpaceOnUse" x1="-2846.9705" y1="1544.2578" x2="-3128.9741" y2="1911.1366" gradientTransform="matrix(-1 0 0 1 -688.4701 0)">
				<stop  offset="0" style="stop-color:#FEBBBA"/>
				<stop  offset="1" style="stop-color:#FF928E"/>
			</linearGradient>
			<path style="fill:url(#SVGID_00000158729165181212280470000012068476054237068690_);" d="M2008.572,1436.223
				c0,0,88.188,19.45,141.827,44.216c10.653,4.918,19.151,13.519,23.99,24.119c16.042,35.141,64.038,123.261,157.118,165.314
				c-13.404,17.792-34.988,54.799-44.39,117.002c-55.905-41.61-104.168-111.099-127.34-225.063c0,0-17.645,9.592-39.656-1.098
				c-11.629-5.648-25.056-13.659-35.136-19.959c-10.043-6.278-17.523-16.036-20.428-27.434c-3.836-15.05-1.577-28.283-1.577-42.48
				l-45.331-14.044C2017.65,1456.795,2004.024,1451.651,2008.572,1436.223z"/>
			
				<linearGradient id="SVGID_00000064338250064653251680000002455623648666808961_" gradientUnits="userSpaceOnUse" x1="3607.8975" y1="1418.9811" x2="2799.188" y2="1843.8962">
				<stop  offset="0" style="stop-color:#FF928E"/>
				<stop  offset="1" style="stop-color:#FE7062"/>
			</linearGradient>
			<path style="fill:url(#SVGID_00000064338250064653251680000002455623648666808961_);" d="M2287.117,1786.874
				c9.402-62.203,30.986-99.211,44.39-117.002c57.823,26.124,133.04,34.476,228.821,1.286c8.829-3.059,18.038-4.851,27.376-5.399
				c50.989-2.99,219.015-8.445,358.051,37.49c29.261,9.667,52.962,31.299,65.176,59.328
				c37.611,86.312,98.503,282.875-70.539,382.111c-12.987-32.244-27.978-58.162-40.795-77.204
				c27.223-45.917,35.285-108.633-13.023-190.302c-35.225,95.115-51.75,233.899-55.203,295.318
				c-1.137,20.222,2.41,40.405,10.345,59.075l0.865,2.036c1.698,3.995-0.638,8.586-4.91,9.545
				c-95.164,21.377-194.142,15.569-223.713,13.126c-5.279-0.436-9.665-4.213-10.876-9.316
				c-46.275-194.987-46.381-327.993-35.051-412.074C2524.743,1844.571,2392.373,1865.213,2287.117,1786.874z"/>
			
				<linearGradient id="SVGID_00000135648722385240391920000016236366384909989279_" gradientUnits="userSpaceOnUse" x1="2563.9795" y1="1776.3606" x2="2605.4819" y2="1776.3606">
				<stop  offset="0" style="stop-color:#E1473D"/>
				<stop  offset="1" style="stop-color:#E9605A"/>
			</linearGradient>
			<path style="fill:url(#SVGID_00000135648722385240391920000016236366384909989279_);" d="M2567.843,1840.136
				c1.907,0,3.565-1.412,3.822-3.353c10.869-82.096,33-117.924,33.22-118.276c1.137-1.801,0.602-4.186-1.2-5.326
				c-1.794-1.13-4.178-0.605-5.319,1.192c-0.947,1.486-23.231,37.361-34.354,121.398c-0.279,2.113,1.207,4.053,3.32,4.332
				C2567.505,1840.125,2567.674,1840.136,2567.843,1840.136z"/>
			
				<linearGradient id="SVGID_00000002346431995593917190000011947831886560353943_" gradientUnits="userSpaceOnUse" x1="-3475.5498" y1="1781.377" x2="-3444.6982" y2="1619.4061" gradientTransform="matrix(-1 0 0 1 -688.4701 0)">
				<stop  offset="0" style="stop-color:#FEBBBA"/>
				<stop  offset="1" style="stop-color:#FF928E"/>
			</linearGradient>
			<path style="fill:url(#SVGID_00000002346431995593917190000011947831886560353943_);" d="M2802.692,1552.172
				c0,0,9.627,101.79,18.104,131.9c1.286,4.568-0.698,9.385-4.849,11.756c-14.386,8.22-48.891,21.628-96.089-1.503
				c-7.646-3.747-12.243-11.718-11.886-20.153l4.158-98.362L2802.692,1552.172z"/>
			<g>
				
					<linearGradient id="SVGID_00000087390480962913177300000005373267734436645811_" gradientUnits="userSpaceOnUse" x1="-3392.0698" y1="1484.2115" x2="-3568.0972" y2="1618.8993" gradientTransform="matrix(-1 0 0 1 -688.4701 0)">
					<stop  offset="0" style="stop-color:#FEBBBA"/>
					<stop  offset="1" style="stop-color:#FF928E"/>
				</linearGradient>
				<path style="fill:url(#SVGID_00000087390480962913177300000005373267734436645811_);" d="M2710.054,1421.95
					c0,0-30.792,70.734-32.86,107.86c-2.068,37.126-10.068,61.216,32.86,68.692c42.927,7.476,79.09-13.908,98.681-50.89
					c0,0,30.696-56.985,23.81-80.322C2825.66,1443.953,2710.054,1421.95,2710.054,1421.95z"/>
				
					<linearGradient id="SVGID_00000002365352153121608210000001251408060985809067_" gradientUnits="userSpaceOnUse" x1="-3515.9854" y1="1377.5684" x2="-3352.0437" y2="1588.6429" gradientTransform="matrix(-1 0 0 1 -688.4701 0)">
					<stop  offset="0" style="stop-color:#09005D"/>
					<stop  offset="1" style="stop-color:#1A0F91"/>
				</linearGradient>
				<path style="fill:url(#SVGID_00000002365352153121608210000001251408060985809067_);" d="M2794.067,1521.023l-2.444-1.077
					c-3.111-1.371-4.442-5.074-2.879-8.094c6.053-11.696,17.854-38.498,2.609-44.75c-19.647-8.058-97.471-23.928-114.262-51.542
					c-16.138-26.54-1.839-60.799,19.65-70.543c1.438-0.652,3.134-0.135,3.871,1.261l1.791,3.388c1.226,2.32,4.652,1.968,5.381-0.552
					c0.7-2.419,3.918-2.889,5.253-0.753c5.161,8.262,19.095,21.655,56.359,28.533c52.958,9.774,87.971,31.205,88.843,67.8
					c0.055,2.325,2.529,3.618,4.514,2.407c3.91-2.383,10.168-3.501,18.531,3.531c14.543,12.229,8.592,43.953-23.291,70.048
					c-1.514,1.24-1.502,3.604,0.138,4.672c5.78,3.763,14.397,12.715-7.93,24.65c-23.093,12.344-40.338,11.332-46.978,10.236
					c-1.652-0.273-2.717-1.872-2.356-3.507l7.087-32.164c0.401-1.82-0.985-3.545-2.849-3.545H2794.067z"/>
				
					<linearGradient id="SVGID_00000075850126643600294690000005795774810245873079_" gradientUnits="userSpaceOnUse" x1="-3413.9038" y1="1455.6757" x2="-3589.9316" y2="1590.3638" gradientTransform="matrix(-1 0 0 1 -688.4701 0)">
					<stop  offset="0" style="stop-color:#FEBBBA"/>
					<stop  offset="1" style="stop-color:#FF928E"/>
				</linearGradient>
				<path style="fill:url(#SVGID_00000075850126643600294690000005795774810245873079_);" d="M2792.733,1527.81
					c0,0,11.747-45.184,32.005-32.515c20.258,12.669-10.512,50.627-26.799,52.318L2792.733,1527.81z"/>
			</g>
			
				<linearGradient id="SVGID_00000114046805574707212790000001774431293943143100_" gradientUnits="userSpaceOnUse" x1="2079.9268" y1="1515.3754" x2="2149.1345" y2="1515.3754">
				<stop  offset="0" style="stop-color:#FF928E"/>
				<stop  offset="1" style="stop-color:#FE7062"/>
			</linearGradient>
			<path style="fill:url(#SVGID_00000114046805574707212790000001774431293943143100_);" d="M2136.259,1551.299
				c0.855,0,1.717-0.282,2.432-0.866c1.654-1.343,1.904-3.775,0.557-5.429c-3.334-4.105-32.93-40.289-44.331-46.727
				c-4.149-2.344-6.621-4.765-7.146-6.999c-0.253-1.068-0.084-2.267,0.517-3.632l34.772,6.97l19.702,16.903
				c1.611,1.39,4.054,1.207,5.44-0.415c1.39-1.618,1.203-4.053-0.415-5.444l-20.465-17.564c-0.502-0.429-1.104-0.723-1.753-0.855
				l-38.495-7.714c-1.544-0.312-3.093,0.337-3.962,1.629c-2.821,4.185-3.756,8.078-2.854,11.892
				c1.064,4.508,4.615,8.419,10.862,11.948c8.576,4.846,33.326,34.038,42.141,44.878
				C2134.021,1550.815,2135.136,1551.299,2136.259,1551.299z"/>
			
				<linearGradient id="SVGID_00000009591262771293874990000013206088576267319193_" gradientUnits="userSpaceOnUse" x1="-3310.6992" y1="1896.4406" x2="-3433.905" y2="2081.249" gradientTransform="matrix(-1 0 0 1 -688.4701 0)">
				<stop  offset="0" style="stop-color:#FEBBBA"/>
				<stop  offset="1" style="stop-color:#FF928E"/>
			</linearGradient>
			<path style="fill:url(#SVGID_00000009591262771293874990000013206088576267319193_);" d="M2794.228,2193.609l-136.106,1.684
				l47.635-44.839c11.84-11.145,29.912-12.95,43.579-4.086c8.002,5.19,16.681,12.236,24.199,21.565
				c0,0,84.903-31.028,126.061-100.449c12.818,19.042,27.808,44.961,40.795,77.204
				C2903.496,2166.349,2855.667,2183.381,2794.228,2193.609z"/>
			<g>
				
					<linearGradient id="SVGID_00000027597073853292350180000007467206225005800322_" gradientUnits="userSpaceOnUse" x1="1036.5219" y1="2228.449" x2="758.1824" y2="2304.7346" gradientTransform="matrix(0.9988 -0.0494 0.0494 0.9988 1692.7968 -55.0328)">
					<stop  offset="0" style="stop-color:#09005D"/>
					<stop  offset="1" style="stop-color:#1A0F91"/>
				</linearGradient>
				<path style="fill:url(#SVGID_00000027597073853292350180000007467206225005800322_);" d="M2779.564,2211.163
					c-0.264,0.013-0.528,0.02-0.794,0.018l-345.49-0.373c-8.541-0.007-15.457-6.865-15.448-15.315
					c0.009-8.454,6.964-15.437,15.482-15.285l345.49,0.373c8.541,0.007,15.457,6.865,15.448,15.315
					C2794.242,2204.083,2787.735,2210.763,2779.564,2211.163z"/>
				
					<linearGradient id="SVGID_00000149368489794211940340000004411012868525000857_" gradientUnits="userSpaceOnUse" x1="726.4401" y1="1941.925" x2="530.1069" y2="2149.4373" gradientTransform="matrix(1 0 0 1 1734.2657 0)">
					<stop  offset="0" style="stop-color:#09005D"/>
					<stop  offset="1" style="stop-color:#1A0F91"/>
				</linearGradient>
				<path style="fill:url(#SVGID_00000149368489794211940340000004411012868525000857_);" d="M2122.699,1900.792h287.727
					c21.226,0,40.545,12.12,49.599,31.115l133.016,279.073h-357.567c-13.678,0-25.968-8.269-30.995-20.856l-103.148-258.24
					C2095.369,1916.962,2106.483,1900.792,2122.699,1900.792z"/>
				
					<linearGradient id="SVGID_00000109010790536235214260000007360261224324172185_" gradientUnits="userSpaceOnUse" x1="607.3878" y1="1993.7909" x2="518.6392" y2="2127.436" gradientTransform="matrix(1 0 0 1 1734.2657 0)">
					<stop  offset="0" style="stop-color:#4042E2"/>
					<stop  offset="1" style="stop-color:#4F52FF"/>
				</linearGradient>
				<path style="fill:url(#SVGID_00000109010790536235214260000007360261224324172185_);" d="M2325.405,2043.881
					c6.235,19.167,1.629,37.781-10.288,41.577c-11.917,3.795-26.632-8.666-32.868-27.833c-6.235-19.167-1.629-37.781,10.288-41.577
					C2304.455,2012.253,2319.17,2024.714,2325.405,2043.881z"/>
			</g>
		</g>
	</g>
</g>
</svg>
